<svg xmlns="http://www.w3.org/2000/svg" width="108" height="36" viewBox="0 0 108 36">
    <g fill="none" fill-rule="evenodd">
        <g fill="#303842">
            <g>
                <g>
                    <g>
                        <g>
                            <path d="M4.965 11.93h25.35c3.295 0 5.966 2.67 5.966 5.965 0 3.294-2.67 5.965-5.965 5.965H4.965C1.67 23.86-1 21.19-1 17.895s2.67-5.965 5.965-5.965z" transform="translate(-681 -260) translate(631 176) translate(17 80) translate(33 4) translate(.5) rotate(45 17.64 17.895)"/>
                            <path d="M28.825 11.93h25.35c3.295 0 5.965 2.67 5.965 5.965 0 3.294-2.67 5.965-5.965 5.965h-25.35c-3.295 0-5.965-2.67-5.965-5.965s2.67-5.965 5.965-5.965z" transform="translate(-681 -260) translate(631 176) translate(17 80) translate(33 4) translate(.5) rotate(45 41.5 17.895)"/>
                            <path d="M52.682 11.93h25.35c3.295 0 5.965 2.67 5.965 5.965 0 3.294-2.67 5.965-5.964 5.965H52.682c-3.295 0-5.965-2.67-5.965-5.965s2.67-5.965 5.965-5.965z" transform="translate(-681 -260) translate(631 176) translate(17 80) translate(33 4) translate(.5) rotate(45 65.357 17.895)"/>
                            <path d="M76.539 11.93h25.35c3.295 0 5.966 2.67 5.966 5.965 0 3.294-2.671 5.965-5.965 5.965H76.539c-3.295 0-5.965-2.67-5.965-5.965s2.67-5.965 5.965-5.965z" transform="translate(-681 -260) translate(631 176) translate(17 80) translate(33 4) translate(.5) rotate(45 89.214 17.895)"/>
                            <path d="M103.526 3.982V13.99c0 .553-.447 1-1 1-.265 0-.52-.105-.707-.293L91.812 4.69c-.39-.391-.39-1.024 0-1.415.188-.187.442-.293.707-.293h10.007c.553 0 1 .448 1 1z" transform="translate(-681 -260) translate(631 176) translate(17 80) translate(33 4) translate(.5)"/>
                            <path d="M16.895 20.386v10.007c0 .552-.448 1-1 1-.265 0-.52-.106-.707-.293L5.18 21.093c-.39-.39-.39-1.024 0-1.414.187-.188.442-.293.707-.293h10.007c.552 0 1 .448 1 1z" transform="translate(-681 -260) translate(631 176) translate(17 80) translate(33 4) translate(.5) rotate(180 10.184 26.096)"/>
                        </g>
                    </g>
                </g>
            </g>
        </g>
    </g>
</svg>
