<svg xmlns="http://www.w3.org/2000/svg" width="21" height="21" viewBox="0 0 21 21">
    <g fill="none" fill-rule="evenodd">
        <g fill="#989EA7" fill-rule="nonzero">
            <g>
                <g>
                    <g>
                        <g>
                            <path d="M3.938 0C1.764 0 0 1.764 0 3.938v13.124C0 19.236 1.764 21 3.938 21h13.124C19.236 21 21 19.236 21 17.062V3.938C21 1.764 19.236 0 17.062 0H3.938zm0 1.615h13.124c1.281 0 2.323 1.042 2.323 2.322v13.126c0 1.28-1.042 2.322-2.323 2.322H3.938c-1.28 0-2.322-1.042-2.322-2.323V3.938c0-1.28 1.042-2.322 2.322-2.322zm4.947 3.231c-.448 0-.808.36-.808.808v1.615h-3.23c-.449 0-.809.36-.809.808v7.27c0 .447.36.807.808.807h1.616v-2.827c0-.224.18-.404.403-.404.224 0 .404.18.404.404v2.827h1.616v-2.827c0-.224.18-.404.403-.404.224 0 .404.18.404.404v2.827h1.616v-2.827c0-.224.18-.404.404-.404.224 0 .403.18.403.404v2.827h1.616v-2.827c0-.224.18-.404.404-.404.224 0 .403.18.403.404v2.827h1.616c.448 0 .808-.36.808-.808v-7.27c0-.447-.36-.807-.808-.807h-3.23V5.654c0-.448-.36-.808-.809-.808h-3.23z" transform="translate(-1375 -329) translate(631 177) translate(17 81) translate(716 8) translate(11 63) rotate(90 10.5 10.5)"/>
                        </g>
                    </g>
                </g>
            </g>
        </g>
    </g>
</svg>
