<svg xmlns="http://www.w3.org/2000/svg" width="22" height="21" viewBox="0 0 22 21">
    <g fill="none" fill-rule="evenodd">
        <g fill="#D4C3A2" fill-rule="nonzero">
            <g>
                <g>
                    <g>
                        <g>
                            <path d="M17.727 0c2.173 0 3.937 1.764 3.937 3.938v13.124c0 2.174-1.764 3.938-3.937 3.938H4.602C2.428 21 .664 19.236.664 17.062V3.938C.664 1.764 2.428 0 4.602 0zm-4.948 4.846H9.55c-.448 0-.808.36-.808.808v1.615h-3.23c-.449 0-.808.36-.808.808v7.27c0 .447.36.807.807.807h1.616v-2.827c0-.224.18-.404.403-.404.224 0 .404.18.404.404v2.827H9.55v-2.827c0-.224.18-.404.404-.404.224 0 .403.18.403.404v2.827h1.616v-2.827c0-.224.18-.404.404-.404.224 0 .403.18.403.404v2.827h1.616v-2.827c0-.224.18-.404.404-.404.224 0 .404.18.404.404v2.827h1.615c.448 0 .808-.36.808-.808v-7.27c0-.447-.36-.807-.808-.807h-3.23V5.654c0-.448-.36-.808-.809-.808z" transform="translate(-1274 -279) translate(631 177) translate(17 81) translate(616 8) translate(10 13) rotate(90 11.164 10.5)"/>
                        </g>
                    </g>
                </g>
            </g>
        </g>
    </g>
</svg>
