<?xml version="1.0" encoding="utf-8"?>
<!-- Generator: Adobe Illustrator 25.0.0, SVG Export Plug-In . SVG Version: 6.00 Build 0)  -->
<svg version="1.1" id="Layer_1" xmlns="http://www.w3.org/2000/svg" xmlns:xlink="http://www.w3.org/1999/xlink" x="0px" y="0px"
	 viewBox="0 0 316 72" style="enable-background:new 0 0 316 72;" xml:space="preserve">
<style type="text/css">
	.st0{fill-rule:evenodd;clip-rule:evenodd;fill:#CCCCCC;}
</style>
<g>
	<path id="nr1wxp79ob_1_" class="st0" d="M70.9,0v69.6H58.3V41.2H19.1V28.5h39.3V0H70.9L70.9,0z M258,57v12.6h-12.4V57H258z
		 M131.7,0c2.8,0,5.4,0.4,7.7,1.1s4.3,1.7,6,2.9s3.2,2.6,4.4,4.2s2.2,3.2,3,5c0.8,1.7,1.4,3.5,1.7,5.2c0.4,1.8,0.5,3.4,0.5,5v5.7
		c0,2.9-0.4,5.5-1.1,7.7c-0.7,2.3-1.7,4.3-2.9,6s-2.6,3.2-4.2,4.4s-3.2,2.2-5,3c-1.7,0.8-3.5,1.3-5.2,1.7c-1.8,0.4-3.4,0.5-5,0.5
		h-28.5V39.9h28.5c1.6-0.1,3.1-0.5,4.4-1c1.3-0.5,2.4-1.3,3.4-2.2c0.9-0.9,1.7-2,2.2-3.3s0.8-2.7,0.8-4.3v-5.7c-0.2-1.6-0.5-3-1-4.4
		c-0.5-1.3-1.2-2.5-2.1-3.4c-0.9-0.9-2-1.7-3.2-2.2c-1.3-0.5-2.7-0.8-4.4-0.8h-28.4c-1.7,0-3,0.4-3.8,1.3c-0.9,0.9-1.3,2.1-1.3,3.8
		v51.9H85.5V17.7c0-3.2,0.6-6,1.8-8.3c1.2-2.3,2.7-4.1,4.4-5.5c1.8-1.4,3.7-2.4,5.8-3s4-0.9,5.7-0.9L131.7,0L131.7,0z M14,0v69.6
		H1.4V0H14z M308.3,0v12.6h-43c-2.4,0-4.3,0.7-5.6,2.2c-1.3,1.5-2,3.4-2,5.8s0.7,4.3,2,5.8c1.3,1.4,3.2,2.1,5.6,2.1h29.1
		c1.4,0,2.8,0.2,4.3,0.6c1.5,0.3,3,0.9,4.5,1.6s2.9,1.6,4.3,2.7s2.6,2.4,3.6,3.9c1.1,1.5,1.9,3.3,2.5,5.2c0.6,2,0.9,4.2,0.9,6.7
		s-0.3,4.7-0.9,6.7s-1.5,3.7-2.5,5.3s-2.2,2.8-3.6,3.9s-2.8,1.9-4.3,2.6s-3,1.2-4.5,1.5s-3,0.5-4.3,0.5h-31.2V57h31.2
		c2.4,0,4.3-0.7,5.7-2.1c1.3-1.4,2-3.3,2-5.7c0-1.2-0.2-2.2-0.5-3.2c-0.4-1-0.9-1.8-1.5-2.5c-0.7-0.7-1.5-1.3-2.4-1.7
		c-1-0.4-2-0.6-3.2-0.6h-29c-2,0-4.2-0.4-6.6-1.1c-2.4-0.7-4.6-1.9-6.6-3.5s-3.7-3.7-5-6.4s-2-5.8-2-9.6s0.7-7,2-9.6s3-4.7,5.1-6.4
		c2-1.6,4.2-2.8,6.6-3.5s4.6-1.1,6.6-1.1C265.6,0,308.3,0,308.3,0z M206.2,0c4.2,0,8,0.7,11.6,2.2s6.6,3.5,9.2,6
		c2.6,2.6,4.6,5.6,6.1,9.2s2.2,7.5,2.2,11.7v11.4c0,4.2-0.7,8.1-2.2,11.7c-1.5,3.6-3.5,6.6-6.1,9.2c-2.6,2.6-5.7,4.6-9.2,6
		c-3.6,1.5-7.4,2.2-11.6,2.2h-22.8V57h22.8c2.5,0,4.7-0.4,6.7-1.2s3.8-1.9,5.2-3.3c1.5-1.4,2.6-3.2,3.4-5.2c0.8-2,1.2-4.3,1.2-6.8
		V29.1c0-2.5-0.4-4.7-1.2-6.8c-0.8-2-1.9-3.8-3.4-5.2c-1.5-1.4-3.2-2.6-5.2-3.4c-2-0.8-4.3-1.2-6.7-1.2h-27.8v57h-12.6V6.4
		c0-0.9,0.2-1.7,0.5-2.5s0.8-1.5,1.3-2c0.6-0.6,1.2-1,2-1.4c0.8-0.3,1.6-0.5,2.5-0.5L206.2,0L206.2,0z"/>
</g>
</svg>
