<svg xmlns="http://www.w3.org/2000/svg" width="8" height="31" viewBox="0 0 8 31">
    <g fill="none" fill-rule="evenodd">
        <g fill="#303842">
            <g>
                <g>
                    <path d="M144.706 18.004c.267 0 .507.034.72.102.213.069.4.16.563.274.162.114.3.245.415.394.113.148.208.304.282.467.074.162.128.326.162.491.033.166.05.321.05.467v.538c0 .27-.034.511-.1.724-.067.212-.157.4-.271.562-.114.163-.246.301-.395.417-.149.115-.304.21-.467.282-.162.073-.326.126-.492.16-.166.033-.321.05-.467.05h-2.68v-1.184h2.68c.152-.013.29-.044.412-.094.123-.05.229-.117.317-.202s.157-.188.205-.308c.049-.12.073-.256.073-.407v-.538c-.015-.149-.047-.285-.096-.41-.048-.124-.114-.23-.198-.318-.084-.089-.184-.158-.303-.208-.118-.05-.255-.075-.41-.075h-2.67c-.159 0-.279.041-.36.123-.083.082-.124.2-.124.355v4.869h-1.185v-4.869c0-.303.056-.561.167-.774.11-.212.249-.384.414-.515.166-.13.346-.225.54-.284.195-.06.374-.089.538-.089h2.68zm-5.971 0v6.53h-1.192v-2.668h-3.706v-1.193h3.706v-2.669h1.192zm17.959 5.306v1.225h-1.225V23.31h1.225zm4.709-5.306v1.184h-4.033c-.225 0-.4.068-.527.205-.126.137-.189.317-.189.542 0 .228.063.408.19.54.125.132.3.198.526.198h2.734c.128.003.263.02.406.052.142.032.284.081.426.148.141.067.276.151.403.253.128.102.24.224.34.367.098.142.177.306.234.491.058.186.087.395.087.629 0 .234-.03.444-.089.63-.06.187-.137.352-.235.495-.097.142-.21.264-.342.364-.13.1-.265.182-.405.246s-.282.11-.426.141c-.145.03-.28.046-.408.046h-2.933V23.35h2.933c.228 0 .405-.067.53-.2.127-.134.19-.313.19-.538 0-.11-.017-.21-.05-.3-.034-.092-.081-.17-.144-.238-.062-.066-.138-.118-.227-.154-.09-.037-.19-.055-.299-.055h-2.725c-.192 0-.398-.034-.62-.102-.222-.069-.428-.179-.618-.33-.19-.152-.347-.351-.474-.597-.126-.246-.189-.547-.189-.902s.063-.655.19-.9c.126-.244.283-.443.473-.596.19-.153.396-.264.618-.332.222-.069.428-.103.62-.103h4.033zm-9.893 0c.392 0 .755.068 1.09.205.334.137.622.326.866.567.242.241.433.53.571.865.139.336.208.7.208 1.096v1.065c0 .398-.07.764-.208 1.098-.138.334-.329.621-.571.863-.244.241-.532.43-.866.567-.335.136-.698.205-1.09.205h-2.137V23.35h2.137c.231 0 .442-.037.632-.112.19-.074.353-.179.49-.314.136-.135.242-.298.316-.487.075-.19.112-.402.112-.636v-1.065c0-.231-.037-.442-.112-.633-.074-.192-.18-.355-.317-.49-.136-.135-.3-.24-.49-.314-.19-.075-.4-.112-.63-.112h-2.612v5.347h-1.185V18.6c0-.082.015-.16.046-.233.03-.073.072-.136.125-.19.053-.056.116-.098.19-.128.072-.03.151-.046.236-.046h3.2zM133.224 18v6.53H132V18h1.224z" transform="translate(-996 -309) translate(631 176) translate(222 127) rotate(-90 147 21.267)"/>
                </g>
            </g>
        </g>
    </g>
</svg>
