<?xml version="1.0" encoding="utf-8"?>
<!-- Generator: Adobe Illustrator 25.0.0, SVG Export Plug-In . SVG Version: 6.00 Build 0)  -->
<svg version="1.1" id="Layer_1" xmlns="http://www.w3.org/2000/svg" xmlns:xlink="http://www.w3.org/1999/xlink" x="0px" y="0px"
	 viewBox="0 0 56 56" style="enable-background:new 0 0 56 56;" xml:space="preserve">
<style type="text/css">
	.st0{fill:#6F6F6F;}
	.st1{fill:#E6E7E8;}
</style>
<g>
	<g>
		<g>
			<g>
				<g>
					<g transform="translate(-672 -331) translate(631 177) translate(17 81) translate(8 73) translate(16) translate(110)">
						<path class="st0" d="M-69.2,39L-69.2,39l-4.8,3.5c-1.1-0.5-6.7-3.7-7.9-9.4c-5.2,2.9-6.4,9.4-6.6,10.5h0l-4.7-3.5
							c0.2-1.2,1.4-7.5,6.5-10.5c-4.4-4.1-10.9-3.2-12.1-3h0l1.8-5.6c1.2-0.2,7.6-1,12,3c2.5-5.5-0.3-11.4-0.8-12.4v0l5.9,0
							c0.5,1.1,3.3,6.9,0.9,12.3c6,0.7,10.7-3.8,11.5-4.6l0,0l1.8,5.6c-0.9,0.9-5.5,5.2-11.4,4.6C-76,35.4-70.2,38.5-69.2,39z"/>
						<circle class="st1" cx="-82" cy="28" r="4.9"/>
					</g>
				</g>
			</g>
		</g>
	</g>
</g>
</svg>
