<?xml version="1.0" encoding="utf-8"?>
<!-- Generator: Adobe Illustrator 25.0.0, SVG Export Plug-In . SVG Version: 6.00 Build 0)  -->
<svg version="1.1" id="Layer_1" xmlns="http://www.w3.org/2000/svg" xmlns:xlink="http://www.w3.org/1999/xlink" x="0px" y="0px"
	 viewBox="0 0 166 56" style="enable-background:new 0 0 166 56;" xml:space="preserve">
<style type="text/css">
	.st0{fill-rule:evenodd;clip-rule:evenodd;fill:#2D353E;}
	.st1{fill:none;stroke:#303842;stroke-width:2;}
	.st2{fill-rule:evenodd;clip-rule:evenodd;fill:#303842;}
	.st3{fill:#A5A5A4;}
	.st4{fill:#5E5F62;}
	.st5{fill:#303842;}
</style>
<g>
	<g>
		<g>
			<g>
				<g>
					<g transform="translate(-672 -331) translate(631 177) translate(17 81) translate(8 73) translate(16) translate(0 15)">
						<circle class="st0" cx="2.5" cy="7" r="2.5"/>
						<circle class="st0" cx="2.5" cy="16" r="2.5"/>
						<circle class="st0" cx="2.5" cy="25" r="2.5"/>
						<circle class="st0" cx="20.5" cy="7" r="2.5"/>
						<circle class="st0" cx="20.5" cy="16" r="2.5"/>
						<circle class="st0" cx="20.5" cy="25" r="2.5"/>
						<circle class="st0" cx="11.5" cy="21" r="2.5"/>
						<circle class="st0" cx="11.5" cy="12" r="2.5"/>
						<circle class="st0" cx="11.5" cy="3" r="2.5"/>
						<circle class="st0" cx="29.5" cy="21" r="2.5"/>
						<circle class="st0" cx="29.5" cy="12" r="2.5"/>
						<circle class="st0" cx="29.5" cy="3" r="2.5"/>
						<circle class="st0" cx="38.5" cy="7" r="2.5"/>
						<circle class="st0" cx="38.5" cy="16" r="2.5"/>
						<circle class="st0" cx="38.5" cy="25" r="2.5"/>
						<circle class="st0" cx="56.5" cy="7" r="2.5"/>
						<circle class="st0" cx="56.5" cy="16" r="2.5"/>
						<circle class="st0" cx="56.5" cy="25" r="2.5"/>
						<circle class="st0" cx="47.5" cy="21" r="2.5"/>
						<circle class="st0" cx="47.5" cy="12" r="2.5"/>
						<circle class="st0" cx="47.5" cy="3" r="2.5"/>
					</g>
					<g>
						<path class="st1" d="M91.6,16.5c0.6,0,1.1,0.2,1.5,0.7l0,0l7.4,8.4c0.3,0.4,0.5,0.8,0.5,1.3l0,0v12.6c0,0.6-0.2,1.1-0.6,1.4
							s-0.8,0.6-1.4,0.6l0,0H69c-0.6,0-1.1-0.2-1.4-0.6S67,40.1,67,39.5l0,0V26.9c0-0.5,0.2-1,0.5-1.3l0,0l7.4-8.4
							c0.4-0.4,0.9-0.7,1.5-0.7l0,0H91.6z"/>
						<path class="st2" d="M89.5,20.6c0.6,0,1.1,0.2,1.5,0.7l5.3,6.1c0.3,0.4,0.5,0.8,0.5,1.3v7.6c0,0.6-0.4,1-1,1H72.1
							c-0.6,0-1-0.4-1-1v-7.6c0-0.5,0.2-1,0.5-1.3l5.3-6.1c0.4-0.4,0.9-0.7,1.5-0.7C78.5,20.6,89.5,20.6,89.5,20.6z M91.2,29.6h-1.6
							c-0.3,0-0.5,0.2-0.5,0.5v4.1c0,0.3,0.2,0.5,0.5,0.5h1.6c0.3,0,0.5-0.2,0.5-0.5v-4.1C91.7,29.9,91.5,29.6,91.2,29.6z
							 M78.4,29.6h-1.6c-0.3,0-0.5,0.2-0.5,0.5v4.1c0,0.3,0.2,0.5,0.5,0.5h1.6c0.3,0,0.5-0.2,0.5-0.5v-4.1
							C78.9,29.9,78.6,29.6,78.4,29.6z M84.8,24.5h-1.6c-0.3,0-0.5,0.2-0.5,0.5v4.1c0,0.3,0.2,0.5,0.5,0.5h1.6
							c0.3,0,0.5-0.2,0.5-0.5V25C85.3,24.7,85.1,24.5,84.8,24.5z"/>
					</g>
					<g transform="translate(-672 -331) translate(631 177) translate(17 81) translate(8 73) translate(16) translate(110)">
						<path class="st3" d="M3.9,0.5h48.3c2.1,0,3.8,1.7,3.8,3.8v47.4c0,2.1-1.7,3.8-3.9,3.8H3.9C1.7,55.4,0,53.7,0,51.6V4.3
							C0,2.2,1.7,0.5,3.9,0.5z"/>
						<circle class="st4" cx="28.1" cy="28" r="24.2"/>
						<circle class="st5" cx="28.1" cy="28" r="20.3"/>
						<g transform="translate(3.915 3.745)">
							<circle class="st4" cx="2" cy="2.1" r="1.9"/>
							<circle class="st4" cx="2" cy="46.5" r="1.9"/>
							<circle class="st4" cx="46.4" cy="2.1" r="1.9"/>
							<circle class="st4" cx="46.4" cy="46.5" r="1.9"/>
						</g>
					</g>
				</g>
			</g>
		</g>
	</g>
</g>
</svg>
