<svg width="142" height="100" viewBox="0 0 142 100" fill="none" xmlns="http://www.w3.org/2000/svg">
<path fill-rule="evenodd" clip-rule="evenodd" d="M142 0H0V100H142V0ZM28 5C26.3431 5 25 6.34315 25 8C25 9.65685 26.3431 11 28 11H133C134.657 11 136 9.65685 136 8C136 6.34315 134.657 5 133 5H28ZM17 12.5C17 14.9853 14.9853 17 12.5 17C10.0147 17 8 14.9853 8 12.5C8 10.0147 10.0147 8 12.5 8C14.9853 8 17 10.0147 17 12.5ZM9 26C8.44771 26 8 26.4477 8 27C8 27.5523 8.44771 28 9 28H16C16.5523 28 17 27.5523 17 27C17 26.4477 16.5523 26 16 26H9ZM39.4578 19.748C39.739 19.147 39.4808 18.4208 38.8406 18.2463C37.7547 17.9504 36.6073 17.9191 35.4965 18.1634C33.9923 18.4942 32.6392 19.3118 31.6468 20.4896C30.6544 21.6674 30.0782 23.1397 30.0074 24.6782C29.9366 26.2167 30.3752 27.7356 31.2552 28.9996C32.1352 30.2636 33.4075 31.2021 34.8749 31.6696C36.3424 32.1372 37.9231 32.1077 39.3721 31.5858C40.8211 31.0639 42.0576 30.0787 42.8899 28.7828C43.5045 27.8258 43.8734 26.7389 43.9727 25.6178C44.0313 24.9569 43.4398 24.4626 42.7786 24.5178C42.1174 24.573 41.6422 25.1613 41.5247 25.8143C41.4184 26.4049 41.1968 26.9729 40.8683 27.4844C40.3216 28.3355 39.5096 28.9826 38.5579 29.3254C37.6062 29.6681 36.5681 29.6875 35.6043 29.3804C34.6405 29.0733 33.8049 28.4569 33.227 27.6268C32.649 26.7967 32.361 25.7991 32.4075 24.7886C32.454 23.7782 32.8325 22.8113 33.4842 22.0377C34.136 21.2642 35.0247 20.7272 36.0126 20.5099C36.6063 20.3794 37.2159 20.3687 37.8067 20.474C38.4599 20.5904 39.1766 20.3489 39.4578 19.748ZM89.2777 20.9683C89.6598 20.4259 90.4306 20.4306 90.8997 20.8997C91.3689 21.3689 91.3517 22.1249 91.0197 22.6994C90.8441 23.0031 90.7032 23.3272 90.6006 23.6655C90.3811 24.3889 90.3435 25.1554 90.491 25.8969C90.6385 26.6384 90.9666 27.3321 91.4462 27.9165C91.9258 28.501 92.5422 28.9581 93.2407 29.2474C93.9392 29.5367 94.6982 29.6493 95.4506 29.5752C96.203 29.5011 96.9255 29.2426 97.5542 28.8226C98.1828 28.4025 98.6981 27.834 99.0545 27.1672C99.2212 26.8554 99.3507 26.5267 99.4413 26.1877C99.6127 25.5468 100.135 25 100.799 25C101.462 25 102.01 25.5417 101.897 26.1954C101.77 26.9285 101.527 27.6391 101.173 28.2998C100.631 29.315 99.8461 30.1807 98.889 30.8203C97.9318 31.4598 96.8317 31.8535 95.6861 31.9663C94.5405 32.0791 93.3847 31.9077 92.3212 31.4672C91.2577 31.0266 90.3192 30.3306 89.5889 29.4408C88.8586 28.5509 88.3591 27.4947 88.1345 26.3656C87.9099 25.2366 87.9673 24.0696 88.3014 22.968C88.5189 22.2512 88.8492 21.5764 89.2777 20.9683ZM32 59C32 57.8954 32.8954 57 34 57H124C125.105 57 126 57.8954 126 59C126 60.1046 125.105 61 124 61H34C32.8954 61 32 60.1046 32 59ZM34 65C32.8954 65 32 65.8954 32 67C32 68.1046 32.8954 69 34 69H124C125.105 69 126 68.1046 126 67C126 65.8954 125.105 65 124 65H34ZM32 75C32 73.8954 32.8954 73 34 73H124C125.105 73 126 73.8954 126 75C126 76.1046 125.105 77 124 77H34C32.8954 77 32 76.1046 32 75ZM34 81C32.8954 81 32 81.8954 32 83C32 84.1046 32.8954 85 34 85H124C125.105 85 126 84.1046 126 83C126 81.8954 125.105 81 124 81H34Z" fill="#ECEFF1"/>
<path d="M74 15H58C55.7909 15 54 16.7909 54 19V30C54 32.2091 55.7909 34 58 34H74C76.2091 34 78 32.2091 78 30V19C78 16.7909 76.2091 15 74 15Z" fill="white"/>
<path d="M72.5 26H57.5C57.2239 26 57 26.2239 57 26.5C57 26.7761 57.2239 27 57.5 27H72.5C72.7761 27 73 26.7761 73 26.5C73 26.2239 72.7761 26 72.5 26Z" fill="#C4C4C4"/>
<path d="M70.7651 24H57.5C57.2239 24 57 24.2239 57 24.5C57 24.7761 57.2239 25 57.5 25H70.7651C71.0412 25 71.2651 24.7761 71.2651 24.5C71.2651 24.2239 71.0412 24 70.7651 24Z" fill="#C4C4C4"/>
<path d="M57 22.5C57 22.2239 57.2239 22 57.5 22H65.753C66.0292 22 66.253 22.2239 66.253 22.5C66.253 22.7761 66.0292 23 65.753 23H57.5C57.2239 23 57 22.7761 57 22.5Z" fill="#C4C4C4"/>
<path d="M132 15H116C113.791 15 112 16.7909 112 19V30C112 32.2091 113.791 34 116 34H132C134.209 34 136 32.2091 136 30V19C136 16.7909 134.209 15 132 15Z" fill="white"/>
<path d="M130.5 26H115.5C115.224 26 115 26.2239 115 26.5C115 26.7761 115.224 27 115.5 27H130.5C130.776 27 131 26.7761 131 26.5C131 26.2239 130.776 26 130.5 26Z" fill="#C4C4C4"/>
<path d="M128.765 24H115.5C115.224 24 115 24.2239 115 24.5C115 24.7761 115.224 25 115.5 25H128.765C129.041 25 129.265 24.7761 129.265 24.5C129.265 24.2239 129.041 24 128.765 24Z" fill="#C4C4C4"/>
<path d="M115 22.5C115 22.2239 115.224 22 115.5 22H123.753C124.029 22 124.253 22.2239 124.253 22.5C124.253 22.7761 124.029 23 123.753 23H115.5C115.224 23 115 22.7761 115 22.5Z" fill="#C4C4C4"/>
<path fill-rule="evenodd" clip-rule="evenodd" d="M25 42C25 39.7909 26.7909 38 29 38H132C134.209 38 136 39.7909 136 42V89C136 91.2091 134.209 93 132 93H29C26.7909 93 25 91.2091 25 89V42ZM32 59C32 57.8954 32.8954 57 34 57H124C125.105 57 126 57.8954 126 59C126 60.1046 125.105 61 124 61H34C32.8954 61 32 60.1046 32 59ZM34 65C32.8954 65 32 65.8954 32 67C32 68.1046 32.8954 69 34 69H124C125.105 69 126 68.1046 126 67C126 65.8954 125.105 65 124 65H34ZM32 75C32 73.8954 32.8954 73 34 73H124C125.105 73 126 73.8954 126 75C126 76.1046 125.105 77 124 77H34C32.8954 77 32 76.1046 32 75ZM34 81C32.8954 81 32 81.8954 32 83C32 84.1046 32.8954 85 34 85H124C125.105 85 126 84.1046 126 83C126 81.8954 125.105 81 124 81H34Z" fill="white"/>
<path d="M8 21C8 20.4477 8.44772 20 9 20H16C16.5523 20 17 20.4477 17 21C17 21.5523 16.5523 22 16 22H9C8.44772 22 8 21.5523 8 21Z" fill="#C4C4C4"/>
<path fill-rule="evenodd" clip-rule="evenodd" d="M5 9C5 6.79086 6.79086 5 9 5H16C18.2091 5 20 6.79086 20 9V88C20 90.2091 18.2091 92 16 92H9C6.79086 92 5 90.2091 5 88V9ZM17 12.5C17 14.9853 14.9853 17 12.5 17C10.0147 17 8 14.9853 8 12.5C8 10.0147 10.0147 8 12.5 8C14.9853 8 17 10.0147 17 12.5ZM9 26C8.44772 26 8 26.4477 8 27C8 27.5523 8.44772 28 9 28H16C16.5523 28 17 27.5523 17 27C17 26.4477 16.5523 26 16 26H9Z" fill="white"/>
<path d="M8 33C8 32.4477 8.44772 32 9 32H16C16.5523 32 17 32.4477 17 33C17 33.5523 16.5523 34 16 34H9C8.44772 34 8 33.5523 8 33Z" fill="#C4C4C4"/>
<path d="M8 39C8 38.4477 8.44772 38 9 38H16C16.5523 38 17 38.4477 17 39C17 39.5523 16.5523 40 16 40H9C8.44772 40 8 39.5523 8 39Z" fill="#C4C4C4"/>
<path d="M8 45C8 44.4477 8.44772 44 9 44H16C16.5523 44 17 44.4477 17 45C17 45.5523 16.5523 46 16 46H9C8.44772 46 8 45.5523 8 45Z" fill="#C4C4C4"/>
<path d="M8 51C8 50.4477 8.44772 50 9 50H16C16.5523 50 17 50.4477 17 51C17 51.5523 16.5523 52 16 52H9C8.44772 52 8 51.5523 8 51Z" fill="#C4C4C4"/>
<path d="M36 50C38.2091 50 40 48.2091 40 46C40 43.7909 38.2091 42 36 42C33.7909 42 32 43.7909 32 46C32 48.2091 33.7909 50 36 50Z" fill="#C4C4C4"/>
<path d="M57.5 47H42.5C42.2239 47 42 47.2239 42 47.5C42 47.7761 42.2239 48 42.5 48H57.5C57.7761 48 58 47.7761 58 47.5C58 47.2239 57.7761 47 57.5 47Z" fill="#C4C4C4"/>
<path d="M55.7651 45H42.5C42.2239 45 42 45.2239 42 45.5C42 45.7761 42.2239 46 42.5 46H55.7651C56.0412 46 56.2651 45.7761 56.2651 45.5C56.2651 45.2239 56.0412 45 55.7651 45Z" fill="#C4C4C4"/>
<path d="M42 43.5C42 43.2239 42.2239 43 42.5 43H50.753C51.0292 43 51.253 43.2239 51.253 43.5C51.253 43.7761 51.0292 44 50.753 44H42.5C42.2239 44 42 43.7761 42 43.5Z" fill="#C4C4C4"/>
<path d="M103 50C105.209 50 107 48.2091 107 46C107 43.7909 105.209 42 103 42C100.791 42 99 43.7909 99 46C99 48.2091 100.791 50 103 50Z" fill="#C4C4C4"/>
<path d="M124.5 47H109.5C109.224 47 109 47.2239 109 47.5C109 47.7761 109.224 48 109.5 48H124.5C124.776 48 125 47.7761 125 47.5C125 47.2239 124.776 47 124.5 47Z" fill="#C4C4C4"/>
<path d="M122.765 45H109.5C109.224 45 109 45.2239 109 45.5C109 45.7761 109.224 46 109.5 46H122.765C123.041 46 123.265 45.7761 123.265 45.5C123.265 45.2239 123.041 45 122.765 45Z" fill="#C4C4C4"/>
<path d="M109 43.5C109 43.2239 109.224 43 109.5 43H117.753C118.029 43 118.253 43.2239 118.253 43.5C118.253 43.7761 118.029 44 117.753 44H109.5C109.224 44 109 43.7761 109 43.5Z" fill="#C4C4C4"/>
<path d="M70 50C72.2091 50 74 48.2091 74 46C74 43.7909 72.2091 42 70 42C67.7909 42 66 43.7909 66 46C66 48.2091 67.7909 50 70 50Z" fill="#C4C4C4"/>
<path d="M91.5 47H76.5C76.2239 47 76 47.2239 76 47.5C76 47.7761 76.2239 48 76.5 48H91.5C91.7761 48 92 47.7761 92 47.5C92 47.2239 91.7761 47 91.5 47Z" fill="#C4C4C4"/>
<path d="M89.7651 45H76.5C76.2239 45 76 45.2239 76 45.5C76 45.7761 76.2239 46 76.5 46H89.7651C90.0412 46 90.2651 45.7761 90.2651 45.5C90.2651 45.2239 90.0412 45 89.7651 45Z" fill="#C4C4C4"/>
<path d="M76 43.5C76 43.2239 76.2239 43 76.5 43H84.753C85.0292 43 85.253 43.2239 85.253 43.5C85.253 43.7761 85.0292 44 84.753 44H76.5C76.2239 44 76 43.7761 76 43.5Z" fill="#C4C4C4"/>
<path fill-rule="evenodd" clip-rule="evenodd" d="M29 15C26.7909 15 25 16.7909 25 19V30C25 32.2091 26.7909 34 29 34H45C47.2091 34 49 32.2091 49 30V19C49 16.7909 47.2091 15 45 15H29ZM38.8406 18.2463C39.4808 18.4208 39.739 19.147 39.4578 19.748C39.1766 20.3489 38.4599 20.5904 37.8067 20.474C37.2159 20.3687 36.6063 20.3794 36.0126 20.5099C35.0247 20.7272 34.136 21.2642 33.4842 22.0377C32.8325 22.8113 32.454 23.7782 32.4075 24.7886C32.361 25.7991 32.649 26.7967 33.227 27.6268C33.8049 28.4569 34.6405 29.0733 35.6043 29.3804C36.5681 29.6875 37.6062 29.6681 38.5579 29.3254C39.5096 28.9826 40.3216 28.3355 40.8683 27.4844C41.1968 26.9729 41.4184 26.4049 41.5247 25.8143C41.6422 25.1613 42.1174 24.573 42.7786 24.5178C43.4398 24.4626 44.0313 24.9569 43.9727 25.6178C43.8734 26.7389 43.5045 27.8258 42.8899 28.7828C42.0576 30.0787 40.8211 31.0639 39.3721 31.5858C37.9231 32.1077 36.3424 32.1372 34.8749 31.6696C33.4075 31.2021 32.1352 30.2636 31.2552 28.9996C30.3752 27.7356 29.9366 26.2167 30.0074 24.6782C30.0782 23.1397 30.6544 21.6674 31.6468 20.4896C32.6392 19.3118 33.9923 18.4942 35.4965 18.1634C36.6073 17.9191 37.7547 17.9504 38.8406 18.2463Z" fill="white"/>
<path fill-rule="evenodd" clip-rule="evenodd" d="M87 15C84.7909 15 83 16.7909 83 19V30C83 32.2091 84.7909 34 87 34H103C105.209 34 107 32.2091 107 30V19C107 16.7909 105.209 15 103 15H87ZM89.2777 20.9683C89.6598 20.4259 90.4306 20.4306 90.8997 20.8997C91.3689 21.3689 91.3517 22.1249 91.0197 22.6994C90.8441 23.0031 90.7032 23.3272 90.6006 23.6655C90.3811 24.3889 90.3435 25.1554 90.491 25.8969C90.6385 26.6384 90.9666 27.3321 91.4462 27.9165C91.9258 28.501 92.5422 28.9581 93.2407 29.2474C93.9392 29.5367 94.6982 29.6493 95.4506 29.5752C96.203 29.5011 96.9255 29.2426 97.5542 28.8226C98.1828 28.4025 98.6981 27.834 99.0545 27.1672C99.2212 26.8554 99.3507 26.5267 99.4413 26.1877C99.6127 25.5468 100.135 25 100.799 25C101.462 25 102.01 25.5417 101.897 26.1954C101.77 26.9285 101.527 27.6391 101.173 28.2998C100.631 29.315 99.8461 30.1807 98.889 30.8203C97.9318 31.4598 96.8317 31.8535 95.6861 31.9663C94.5405 32.0791 93.3847 31.9077 92.3212 31.4672C91.2577 31.0266 90.3192 30.3306 89.5889 29.4408C88.8586 28.5509 88.3591 27.4947 88.1345 26.3656C87.9099 25.2366 87.9673 24.0696 88.3014 22.968C88.5189 22.2512 88.8492 21.5764 89.2777 20.9683Z" fill="white"/>
<path d="M138 0.25H4C1.92893 0.25 0.25 1.92893 0.25 4V96C0.25 98.0711 1.92893 99.75 4 99.75H138C140.071 99.75 141.75 98.0711 141.75 96V4C141.75 1.92893 140.071 0.25 138 0.25Z" stroke="black" stroke-opacity="0.4" stroke-width="0.5"/>
</svg>
