<svg xmlns="http://www.w3.org/2000/svg" width="294" height="14" viewBox="0 0 294 14">
    <g fill="none" fill-rule="evenodd">
        <g fill="#434A54">
            <g>
                <g>
                    <path d="M248.47 16l-14.529 14H206l14.53-14h27.94zm35.765 0l-14.53 14h-27.94l14.53-14h27.94zM320 16l-14.53 14h-27.94l14.529-14H320zm36.47 0l-14.529 14H314l14.53-14h27.94zm35.765 0l-14.53 14h-27.94l14.53-14h27.94zM428 16l-14.53 14h-27.94l14.529-14H428zm35.886 0l-14.672 14H421l14.671-14h28.215zM500 16l-14.671 14h-28.215l14.672-14H500z" transform="translate(-854 -274) translate(631 177) translate(17 81)"/>
                </g>
            </g>
        </g>
    </g>
</svg>
